<?xml version="1.0" encoding="utf-8"?>
<!-- Generator: Adobe Illustrator 24.0.3, SVG Export Plug-In . SVG Version: 6.00 Build 0)  -->
<svg version="1.1" xmlns="http://www.w3.org/2000/svg" xmlns:xlink="http://www.w3.org/1999/xlink" x="0px" y="0px"
	 viewBox="0 0 512 512" style="enable-background:new 0 0 512 512;" xml:space="preserve">
<g id="Capa_1">
	<path d="M505.4,144.5L367.5,6.6c-4.2-4.2-9.9-6.6-15.9-6.6S340,2.3,335.7,6.6c-4.2,4.2-6.6,9.9-6.6,15.9c0,6,2.3,11.7,6.6,15.9
		L351.3,54l-120,106.3c-24.6-5.3-50.4-4.7-74.7,1.9c-26.4,7.1-50.7,21.2-70.1,40.7c-1.4,1.4-2.2,3.3-2.2,5.3c0,2,0.8,3.9,2.2,5.3
		l90.2,90.2L17.2,463C6.1,474.1,0,488.8,0,504.5c0,4.1,3.4,7.5,7.5,7.5c15.7,0,30.4-6.1,41.5-17.2l159.4-159.4l90.2,90.2
		c1.5,1.5,3.4,2.2,5.3,2.2s3.8-0.7,5.3-2.2c19.5-19.5,33.5-43.7,40.7-70.1c6.6-24.3,7.2-50.1,1.9-74.7l106.3-120l15.6,15.6
		c4.2,4.2,9.9,6.6,15.9,6.6s11.7-2.3,15.9-6.6c4.2-4.2,6.6-9.9,6.6-15.9C512,154.4,509.7,148.7,505.4,144.5L505.4,144.5z
		 M38.4,484.2c-6.3,6.3-14.1,10.4-22.6,12c1.6-8.5,5.8-16.4,12-22.6l159.4-159.4l10.6,10.6L38.4,484.2z M494.8,165.7
		c-1.4,1.4-3.3,2.2-5.3,2.2s-3.9-0.8-5.3-2.2l-95.5-95.5c-2.9-2.9-7.7-2.9-10.6,0c-2.9,2.9-2.9,7.7,0,10.6l69.3,69.3
		c-34.7,39.2-69.4,78.4-104.2,117.6c-33-33-65.9-65.9-98.9-98.9L367.2,59.9c1.5-1.4,2.5-3.3,2.5-5.4c0.1-2.1-0.7-4.1-2.2-5.5
		l-21.2-21.2c-1.4-1.4-2.2-3.3-2.2-5.3c0-2,0.8-3.9,2.2-5.3c1.4-1.4,3.3-2.2,5.3-2.2s3.9,0.8,5.3,2.2l137.9,137.9
		c1.4,1.4,2.2,3.3,2.2,5.3S496.2,164.3,494.8,165.7L494.8,165.7z"/>
	<path d="M159,234.9c16.4,30.1,93.2,168,143,154c28.9-8.1,41.6-65.4,34.7-106.5c-10-59.4-62.8-96.6-107.1-107.1
		c-33.5-8-61.9-0.6-73,2.4c-21,5.7-50.1,13.5-54.1,30.6c-5.2,22.3,35.9,45.4,84.6,84.6c30.2,24.3,72.1,61.9,116.7,116.7"/>
	<path d="M462,361.9"/>
	<rect x="228.4" y="97.8" transform="matrix(0.7071 -0.7071 0.7071 0.7071 -18.3622 293.2237)" width="232.7" height="141.9"/>
	<rect x="313.1" y="84.2" transform="matrix(0.7071 0.7071 -0.7071 0.7071 190.849 -272.4245)" width="222.4" height="20"/>
</g>
<g id="Lag_2">
	<path d="M199.3,332.3L33.9,497.7c-5.4,5.4-14.1,5.4-19.5,0h0c-5.4-5.4-5.4-14.1,0-19.5l165.4-165.4c5.4-5.4,14.1-5.4,19.5,0l0,0
		C204.7,318.1,204.7,326.9,199.3,332.3z"/>
</g>
</svg>
